solid 
 facet normal  0.000000e+00 -0.000000e+00  1.000000e+00
   outer loop
     vertex -7.071068e-02 -7.071068e-02  3.100000e-02
     vertex -7.071068e-02  7.071068e-02  3.100000e-02
     vertex -1.000000e-01  0.000000e+00  3.100000e-02
   endloop
 endfacet
 facet normal  0.000000e+00  0.000000e+00  1.000000e+00
   outer loop
     vertex -7.071068e-02 -7.071068e-02  3.100000e-02
     vertex  2.220446e-17  1.000000e-01  3.100000e-02
     vertex -7.071068e-02  7.071068e-02  3.100000e-02
   endloop
 endfacet
 facet normal  0.000000e+00  0.000000e+00  1.000000e+00
   outer loop
     vertex -7.071068e-02 -7.071068e-02  3.100000e-02
     vertex  7.071068e-02  7.071068e-02  3.100000e-02
     vertex  2.220446e-17  1.000000e-01  3.100000e-02
   endloop
 endfacet
 facet normal  0.000000e+00  0.000000e+00  1.000000e+00
   outer loop
     vertex -7.071068e-02 -7.071068e-02  3.100000e-02
     vertex  1.000000e-01 -1.224647e-17  3.100000e-02
     vertex  7.071068e-02  7.071068e-02  3.100000e-02
   endloop
 endfacet
 facet normal -0.000000e+00  0.000000e+00  1.000000e+00
   outer loop
     vertex -7.071068e-02 -7.071068e-02  3.100000e-02
     vertex  7.071068e-02 -7.071068e-02  3.100000e-02
     vertex  1.000000e-01 -1.224647e-17  3.100000e-02
   endloop
 endfacet
 facet normal  0.000000e+00  0.000000e+00  1.000000e+00
   outer loop
     vertex -7.071068e-02 -7.071068e-02  3.100000e-02
     vertex -1.110223e-17 -1.000000e-01  3.100000e-02
     vertex  7.071068e-02 -7.071068e-02  3.100000e-02
   endloop
 endfacet
 facet normal -9.238795e-01 -3.826834e-01  3.237893e-16
   outer loop
     vertex -7.071068e-02 -7.071068e-02  3.100000e-02
     vertex -1.000000e-01  0.000000e+00  3.100000e-02
     vertex -1.000000e-01  0.000000e+00 -3.900000e-02
   endloop
 endfacet
 facet normal -9.238795e-01 -3.826834e-01 -0.000000e+00
   outer loop
     vertex -7.071068e-02 -7.071068e-02  3.100000e-02
     vertex -1.000000e-01  0.000000e+00 -3.900000e-02
     vertex -7.071068e-02 -7.071068e-02 -3.900000e-02
   endloop
 endfacet
 facet normal  0.000000e+00  0.000000e+00 -1.000000e+00
   outer loop
     vertex -4.949747e-02  4.949747e-02 -5.900000e-02
     vertex  1.554312e-17  7.000000e-02 -5.900000e-02
     vertex  4.949747e-02  4.949747e-02 -5.900000e-02
   endloop
 endfacet
 facet normal  0.000000e+00  0.000000e+00 -1.000000e+00
   outer loop
     vertex -4.949747e-02  4.949747e-02 -5.900000e-02
     vertex  4.949747e-02  4.949747e-02 -5.900000e-02
     vertex  7.000000e-02 -7.771561e-18 -5.900000e-02
   endloop
 endfacet
 facet normal  0.000000e+00  0.000000e+00 -1.000000e+00
   outer loop
     vertex -4.949747e-02  4.949747e-02 -5.900000e-02
     vertex  7.000000e-02 -7.771561e-18 -5.900000e-02
     vertex  4.949747e-02 -4.949747e-02 -5.900000e-02
   endloop
 endfacet
 facet normal  0.000000e+00  0.000000e+00 -1.000000e+00
   outer loop
     vertex -4.949747e-02  4.949747e-02 -5.900000e-02
     vertex  4.949747e-02 -4.949747e-02 -5.900000e-02
     vertex -7.771561e-18 -7.000000e-02 -5.900000e-02
   endloop
 endfacet
 facet normal  0.000000e+00 -0.000000e+00 -1.000000e+00
   outer loop
     vertex -4.949747e-02  4.949747e-02 -5.900000e-02
     vertex -7.771561e-18 -7.000000e-02 -5.900000e-02
     vertex -4.949747e-02 -4.949747e-02 -5.900000e-02
   endloop
 endfacet
 facet normal  0.000000e+00  0.000000e+00 -1.000000e+00
   outer loop
     vertex -4.949747e-02  4.949747e-02 -5.900000e-02
     vertex -4.949747e-02 -4.949747e-02 -5.900000e-02
     vertex -7.000000e-02  0.000000e+00 -5.900000e-02
   endloop
 endfacet
 facet normal -5.406138e-01 -2.239296e-01 -8.109207e-01
   outer loop
     vertex -1.000000e-01  0.000000e+00 -3.900000e-02
     vertex -4.949747e-02 -4.949747e-02 -5.900000e-02
     vertex -7.071068e-02 -7.071068e-02 -3.900000e-02
   endloop
 endfacet
 facet normal -5.406138e-01 -2.239296e-01 -8.109207e-01
   outer loop
     vertex -1.000000e-01  0.000000e+00 -3.900000e-02
     vertex -7.000000e-02  0.000000e+00 -5.900000e-02
     vertex -4.949747e-02 -4.949747e-02 -5.900000e-02
   endloop
 endfacet
 facet normal -5.406138e-01  2.239296e-01 -8.109207e-01
   outer loop
     vertex -7.071068e-02  7.071068e-02 -3.900000e-02
     vertex -7.000000e-02  0.000000e+00 -5.900000e-02
     vertex -1.000000e-01  0.000000e+00 -3.900000e-02
   endloop
 endfacet
 facet normal -5.406138e-01  2.239296e-01 -8.109207e-01
   outer loop
     vertex -7.071068e-02  7.071068e-02 -3.900000e-02
     vertex -4.949747e-02  4.949747e-02 -5.900000e-02
     vertex -7.000000e-02  0.000000e+00 -5.900000e-02
   endloop
 endfacet
 facet normal -2.239296e-01 -5.406138e-01 -8.109207e-01
   outer loop
     vertex -7.071068e-02 -7.071068e-02 -3.900000e-02
     vertex -7.771561e-18 -7.000000e-02 -5.900000e-02
     vertex -1.110223e-17 -1.000000e-01 -3.900000e-02
   endloop
 endfacet
 facet normal -2.239296e-01 -5.406138e-01 -8.109207e-01
   outer loop
     vertex -7.071068e-02 -7.071068e-02 -3.900000e-02
     vertex -4.949747e-02 -4.949747e-02 -5.900000e-02
     vertex -7.771561e-18 -7.000000e-02 -5.900000e-02
   endloop
 endfacet
 facet normal -2.239296e-01  5.406138e-01 -8.109207e-01
   outer loop
     vertex  2.081668e-17  1.000000e-01 -3.900000e-02
     vertex -4.949747e-02  4.949747e-02 -5.900000e-02
     vertex -7.071068e-02  7.071068e-02 -3.900000e-02
   endloop
 endfacet
 facet normal -2.239296e-01  5.406138e-01 -8.109207e-01
   outer loop
     vertex  2.081668e-17  1.000000e-01 -3.900000e-02
     vertex  1.387779e-17  7.000000e-02 -5.900000e-02
     vertex -4.949747e-02  4.949747e-02 -5.900000e-02
   endloop
 endfacet
 facet normal  2.239296e-01 -5.406138e-01 -8.109207e-01
   outer loop
     vertex -1.387779e-17 -1.000000e-01 -3.900000e-02
     vertex  4.949747e-02 -4.949747e-02 -5.900000e-02
     vertex  7.071068e-02 -7.071068e-02 -3.900000e-02
   endloop
 endfacet
 facet normal  2.239296e-01 -5.406138e-01 -8.109207e-01
   outer loop
     vertex -1.387779e-17 -1.000000e-01 -3.900000e-02
     vertex -6.938894e-18 -7.000000e-02 -5.900000e-02
     vertex  4.949747e-02 -4.949747e-02 -5.900000e-02
   endloop
 endfacet
 facet normal  2.239296e-01  5.406138e-01 -8.109207e-01
   outer loop
     vertex  7.071068e-02  7.071068e-02 -3.900000e-02
     vertex  1.554312e-17  7.000000e-02 -5.900000e-02
     vertex  2.220446e-17  1.000000e-01 -3.900000e-02
   endloop
 endfacet
 facet normal  2.239296e-01  5.406138e-01 -8.109207e-01
   outer loop
     vertex  7.071068e-02  7.071068e-02 -3.900000e-02
     vertex  4.949747e-02  4.949747e-02 -5.900000e-02
     vertex  1.554312e-17  7.000000e-02 -5.900000e-02
   endloop
 endfacet
 facet normal  5.406138e-01 -2.239296e-01 -8.109207e-01
   outer loop
     vertex  7.071068e-02 -7.071068e-02 -3.900000e-02
     vertex  7.000000e-02 -7.771561e-18 -5.900000e-02
     vertex  1.000000e-01 -1.110223e-17 -3.900000e-02
   endloop
 endfacet
 facet normal  5.406138e-01 -2.239296e-01 -8.109207e-01
   outer loop
     vertex  7.071068e-02 -7.071068e-02 -3.900000e-02
     vertex  4.949747e-02 -4.949747e-02 -5.900000e-02
     vertex  7.000000e-02 -7.771561e-18 -5.900000e-02
   endloop
 endfacet
 facet normal  5.406138e-01  2.239296e-01 -8.109207e-01
   outer loop
     vertex  1.000000e-01 -2.775558e-17 -3.900000e-02
     vertex  4.949747e-02  4.949747e-02 -5.900000e-02
     vertex  7.071068e-02  7.071068e-02 -3.900000e-02
   endloop
 endfacet
 facet normal  5.406138e-01  2.239296e-01 -8.109207e-01
   outer loop
     vertex  1.000000e-01 -2.775558e-17 -3.900000e-02
     vertex  7.000000e-02 -6.938894e-18 -5.900000e-02
     vertex  4.949747e-02  4.949747e-02 -5.900000e-02
   endloop
 endfacet
 facet normal -9.238795e-01  3.826834e-01  3.237893e-16
   outer loop
     vertex -1.000000e-01  0.000000e+00  3.100000e-02
     vertex -7.071068e-02  7.071068e-02  3.100000e-02
     vertex -7.071068e-02  7.071068e-02 -3.900000e-02
   endloop
 endfacet
 facet normal -9.238795e-01  3.826834e-01  3.663258e-16
   outer loop
     vertex -1.000000e-01  0.000000e+00  3.100000e-02
     vertex -7.071068e-02  7.071068e-02 -3.900000e-02
     vertex -1.000000e-01  0.000000e+00 -3.900000e-02
   endloop
 endfacet
 facet normal -3.826834e-01 -9.238795e-01  0.000000e+00
   outer loop
     vertex -1.110223e-17 -1.000000e-01  3.100000e-02
     vertex -7.071068e-02 -7.071068e-02  3.100000e-02
     vertex -7.071068e-02 -7.071068e-02 -3.900000e-02
   endloop
 endfacet
 facet normal -3.826834e-01 -9.238795e-01 -0.000000e+00
   outer loop
     vertex -1.110223e-17 -1.000000e-01  3.100000e-02
     vertex -7.071068e-02 -7.071068e-02 -3.900000e-02
     vertex -1.110223e-17 -1.000000e-01 -3.900000e-02
   endloop
 endfacet
 facet normal -3.826834e-01  9.238795e-01  0.000000e+00
   outer loop
     vertex -7.071068e-02  7.071068e-02  3.100000e-02
     vertex  2.081668e-17  1.000000e-01  3.100000e-02
     vertex  2.081668e-17  1.000000e-01 -3.900000e-02
   endloop
 endfacet
 facet normal -3.826834e-01  9.238795e-01  1.517371e-16
   outer loop
     vertex -7.071068e-02  7.071068e-02  3.100000e-02
     vertex  2.081668e-17  1.000000e-01 -3.900000e-02
     vertex -7.071068e-02  7.071068e-02 -3.900000e-02
   endloop
 endfacet
 facet normal  3.826834e-01 -9.238795e-01  0.000000e+00
   outer loop
     vertex  7.071068e-02 -7.071068e-02  3.100000e-02
     vertex -1.387779e-17 -1.000000e-01  3.100000e-02
     vertex -1.387779e-17 -1.000000e-01 -3.900000e-02
   endloop
 endfacet
 facet normal  3.826834e-01 -9.238795e-01  0.000000e+00
   outer loop
     vertex  7.071068e-02 -7.071068e-02  3.100000e-02
     vertex -1.387779e-17 -1.000000e-01 -3.900000e-02
     vertex  7.071068e-02 -7.071068e-02 -3.900000e-02
   endloop
 endfacet
 facet normal  3.826834e-01  9.238795e-01  0.000000e+00
   outer loop
     vertex  2.220446e-17  1.000000e-01  3.100000e-02
     vertex  7.071068e-02  7.071068e-02  3.100000e-02
     vertex  7.071068e-02  7.071068e-02 -3.900000e-02
   endloop
 endfacet
 facet normal  3.826834e-01  9.238795e-01  0.000000e+00
   outer loop
     vertex  2.220446e-17  1.000000e-01  3.100000e-02
     vertex  7.071068e-02  7.071068e-02 -3.900000e-02
     vertex  2.220446e-17  1.000000e-01 -3.900000e-02
   endloop
 endfacet
 facet normal  9.238795e-01 -3.826834e-01  0.000000e+00
   outer loop
     vertex  1.000000e-01 -1.224647e-17  3.100000e-02
     vertex  7.071068e-02 -7.071068e-02  3.100000e-02
     vertex  7.071068e-02 -7.071068e-02 -3.900000e-02
   endloop
 endfacet
 facet normal  9.238795e-01 -3.826834e-01 -6.255440e-18
   outer loop
     vertex  1.000000e-01 -1.224647e-17  3.100000e-02
     vertex  7.071068e-02 -7.071068e-02 -3.900000e-02
     vertex  1.000000e-01 -1.110223e-17 -3.900000e-02
   endloop
 endfacet
 facet normal  9.238795e-01  3.826834e-01  0.000000e+00
   outer loop
     vertex  7.071068e-02  7.071068e-02  3.100000e-02
     vertex  1.000000e-01 -2.775558e-17  3.100000e-02
     vertex  1.000000e-01 -2.775558e-17 -3.900000e-02
   endloop
 endfacet
 facet normal  9.238795e-01  3.826834e-01  0.000000e+00
   outer loop
     vertex  7.071068e-02  7.071068e-02  3.100000e-02
     vertex  1.000000e-01 -2.775558e-17 -3.900000e-02
     vertex  7.071068e-02  7.071068e-02 -3.900000e-02
   endloop
 endfacet
endsolid
